<svg width="66" height="16" viewBox="0 0 66 16" fill="none" xmlns="http://www.w3.org/2000/svg">
<path d="M2.014 10.972C2.318 11.504 2.63467 11.9727 2.964 12.378C3.306 12.7833 3.686 13.1 4.104 13.328C4.522 13.556 4.997 13.67 5.529 13.67C6.23833 13.67 6.80833 13.4737 7.239 13.081C7.66967 12.6883 7.885 12.188 7.885 11.58C7.885 10.9847 7.74567 10.5097 7.467 10.155C7.18833 9.80033 6.821 9.51533 6.365 9.3C5.92167 9.072 5.44667 8.86933 4.94 8.692C4.61067 8.578 4.24333 8.43233 3.838 8.255C3.43267 8.065 3.04633 7.83067 2.679 7.552C2.31167 7.26067 2.00767 6.906 1.767 6.488C1.539 6.07 1.425 5.557 1.425 4.949C1.425 4.29033 1.58967 3.70133 1.919 3.182C2.24833 2.66267 2.70433 2.25733 3.287 1.966C3.86967 1.662 4.53467 1.51 5.282 1.51C6.004 1.51 6.631 1.64933 7.163 1.928C7.70767 2.194 8.17 2.54233 8.55 2.973C8.93 3.391 9.22767 3.83433 9.443 4.303L8.056 5.101C7.89133 4.77167 7.68233 4.44867 7.429 4.132C7.17567 3.81533 6.86533 3.55567 6.498 3.353C6.14333 3.15033 5.70633 3.049 5.187 3.049C4.465 3.049 3.93933 3.22633 3.61 3.581C3.28067 3.923 3.116 4.30933 3.116 4.74C3.116 5.10733 3.211 5.44933 3.401 5.766C3.591 6.07 3.90767 6.36133 4.351 6.64C4.807 6.906 5.42133 7.172 6.194 7.438C6.54867 7.56467 6.92233 7.72933 7.315 7.932C7.70767 8.13467 8.06867 8.39433 8.398 8.711C8.74 9.015 9.01867 9.38867 9.234 9.832C9.44933 10.2627 9.557 10.782 9.557 11.39C9.557 11.9727 9.443 12.4983 9.215 12.967C8.99967 13.4357 8.69567 13.8347 8.303 14.164C7.923 14.4933 7.486 14.7467 6.992 14.924C6.51067 15.1013 6.004 15.19 5.472 15.19C4.75 15.19 4.07867 15.038 3.458 14.734C2.85 14.4173 2.31167 14.0057 1.843 13.499C1.387 12.9797 1.01333 12.4287 0.722 11.846L2.014 10.972ZM11.0742 10.63C11.0742 9.74333 11.2705 8.958 11.6632 8.274C12.0685 7.59 12.6132 7.05167 13.2972 6.659C13.9812 6.26633 14.7475 6.07 15.5962 6.07C16.4575 6.07 17.2238 6.26633 17.8952 6.659C18.5792 7.05167 19.1175 7.59 19.5102 8.274C19.9155 8.958 20.1182 9.74333 20.1182 10.63C20.1182 11.504 19.9155 12.2893 19.5102 12.986C19.1175 13.67 18.5792 14.2083 17.8952 14.601C17.2238 14.9937 16.4575 15.19 15.5962 15.19C14.7475 15.19 13.9812 14.9937 13.2972 14.601C12.6132 14.2083 12.0685 13.67 11.6632 12.986C11.2705 12.2893 11.0742 11.504 11.0742 10.63ZM12.6132 10.63C12.6132 11.238 12.7398 11.7763 12.9932 12.245C13.2592 12.7137 13.6138 13.0873 14.0572 13.366C14.5132 13.632 15.0262 13.765 15.5962 13.765C16.1662 13.765 16.6728 13.632 17.1162 13.366C17.5722 13.0873 17.9268 12.7137 18.1802 12.245C18.4462 11.7763 18.5792 11.238 18.5792 10.63C18.5792 10.022 18.4462 9.48367 18.1802 9.015C17.9268 8.53367 17.5722 8.16 17.1162 7.894C16.6728 7.628 16.1662 7.495 15.5962 7.495C15.0262 7.495 14.5132 7.628 14.0572 7.894C13.6138 8.16 13.2592 8.53367 12.9932 9.015C12.7398 9.48367 12.6132 10.022 12.6132 10.63ZM22.2063 0.179999H23.7263V15H22.2063V0.179999Z" fill="white"/>
<path d="M27.5732 15V13.48H34.2802V15H27.5732ZM27.5732 3.22V1.7H34.2802V3.22H27.5732ZM27.5732 8.54V7.02H33.9002V8.54H27.5732ZM26.6802 1.7H28.2952V15H26.6802V1.7ZM37.7154 12.302C37.7154 12.6313 37.7914 12.9163 37.9434 13.157C38.1081 13.3977 38.3298 13.5813 38.6084 13.708C38.8998 13.822 39.2291 13.879 39.5964 13.879C40.0651 13.879 40.4831 13.784 40.8504 13.594C41.2304 13.404 41.5281 13.138 41.7434 12.796C41.9714 12.4413 42.0854 12.036 42.0854 11.58L42.3894 12.72C42.3894 13.2773 42.2184 13.7397 41.8764 14.107C41.5471 14.4743 41.1354 14.7467 40.6414 14.924C40.1601 15.1013 39.6788 15.19 39.1974 15.19C38.6654 15.19 38.1651 15.0823 37.6964 14.867C37.2404 14.639 36.8731 14.316 36.5944 13.898C36.3158 13.48 36.1764 12.9733 36.1764 12.378C36.1764 11.5293 36.4741 10.8517 37.0694 10.345C37.6774 9.82567 38.5198 9.566 39.5964 9.566C40.2298 9.566 40.7554 9.642 41.1734 9.794C41.6041 9.93333 41.9461 10.098 42.1994 10.288C42.4528 10.4653 42.6238 10.611 42.7124 10.725V11.618C42.2691 11.314 41.8131 11.0987 41.3444 10.972C40.8758 10.8327 40.3754 10.763 39.8434 10.763C39.3494 10.763 38.9441 10.8263 38.6274 10.953C38.3234 11.0797 38.0954 11.257 37.9434 11.485C37.7914 11.713 37.7154 11.9853 37.7154 12.302ZM37.4874 8.274L36.7464 7.153C37.0758 6.91233 37.5254 6.67167 38.0954 6.431C38.6781 6.19033 39.3748 6.07 40.1854 6.07C40.8694 6.07 41.4648 6.17767 41.9714 6.393C42.4908 6.59567 42.8898 6.89333 43.1684 7.286C43.4598 7.67867 43.6054 8.16 43.6054 8.73V15H42.0854V8.939C42.0854 8.635 42.0348 8.388 41.9334 8.198C41.8321 7.99533 41.6864 7.837 41.4964 7.723C41.3191 7.609 41.1101 7.52667 40.8694 7.476C40.6288 7.42533 40.3754 7.4 40.1094 7.4C39.6788 7.4 39.2861 7.45067 38.9314 7.552C38.5894 7.65333 38.2981 7.77367 38.0574 7.913C37.8168 8.05233 37.6268 8.17267 37.4874 8.274ZM46.5399 12.321C46.7172 12.587 46.9199 12.834 47.1479 13.062C47.3759 13.29 47.6356 13.4737 47.9269 13.613C48.2309 13.7397 48.5602 13.803 48.9149 13.803C49.3456 13.803 49.6812 13.708 49.9219 13.518C50.1752 13.3153 50.3019 13.043 50.3019 12.701C50.3019 12.397 50.2006 12.1437 49.9979 11.941C49.8079 11.7257 49.5609 11.5483 49.2569 11.409C48.9529 11.257 48.6299 11.1177 48.2879 10.991C47.9079 10.839 47.5216 10.6617 47.1289 10.459C46.7489 10.2437 46.4259 9.97133 46.1599 9.642C45.9066 9.3 45.7799 8.87567 45.7799 8.369C45.7799 7.84967 45.9129 7.419 46.1789 7.077C46.4576 6.735 46.8122 6.48167 47.2429 6.317C47.6862 6.15233 48.1422 6.07 48.6109 6.07C49.0796 6.07 49.5166 6.146 49.9219 6.298C50.3399 6.45 50.7072 6.65267 51.0239 6.906C51.3406 7.15933 51.5876 7.45067 51.7649 7.78L50.5489 8.559C50.3082 8.22967 50.0042 7.95733 49.6369 7.742C49.2822 7.52667 48.8769 7.419 48.4209 7.419C48.1042 7.419 47.8319 7.48867 47.6039 7.628C47.3759 7.76733 47.2619 7.98267 47.2619 8.274C47.2619 8.502 47.3506 8.70467 47.5279 8.882C47.7052 9.05933 47.9332 9.21767 48.2119 9.357C48.4906 9.49633 48.7819 9.62933 49.0859 9.756C49.5926 9.95867 50.0549 10.1803 50.4729 10.421C50.8909 10.649 51.2202 10.9277 51.4609 11.257C51.7142 11.5863 51.8409 12.0107 51.8409 12.53C51.8409 13.29 51.5622 13.9233 51.0049 14.43C50.4602 14.9367 49.7382 15.19 48.8389 15.19C48.2562 15.19 47.7306 15.0887 47.2619 14.886C46.7932 14.6707 46.3942 14.3983 46.0649 14.069C45.7482 13.7397 45.5076 13.404 45.3429 13.062L46.5399 12.321ZM57.224 15.19C56.4133 15.19 55.6913 15 55.058 14.62C54.4373 14.2273 53.9497 13.689 53.595 13.005C53.253 12.321 53.082 11.5293 53.082 10.63C53.082 9.718 53.2593 8.92 53.614 8.236C53.9813 7.552 54.488 7.02 55.134 6.64C55.7927 6.26 56.5527 6.07 57.414 6.07C58.2753 6.07 59.01 6.25367 59.618 6.621C60.2387 6.97567 60.7137 7.48867 61.043 8.16C61.3723 8.83133 61.537 9.62933 61.537 10.554C61.537 10.6427 61.5307 10.7377 61.518 10.839C61.518 10.9277 61.518 10.9847 61.518 11.01H54.051V9.718H60.321L59.713 10.592C59.751 10.5287 59.789 10.4337 59.827 10.307C59.865 10.1677 59.884 10.0537 59.884 9.965C59.884 9.44567 59.7763 8.996 59.561 8.616C59.3583 8.236 59.0733 7.93833 58.706 7.723C58.3387 7.50767 57.908 7.4 57.414 7.4C56.8313 7.4 56.331 7.52667 55.913 7.78C55.5077 8.02067 55.191 8.37533 54.963 8.844C54.7477 9.3 54.6337 9.86367 54.621 10.535C54.621 11.219 54.7287 11.8017 54.944 12.283C55.1593 12.7643 55.476 13.1317 55.894 13.385C56.312 13.6383 56.8187 13.765 57.414 13.765C58.0093 13.765 58.535 13.6383 58.991 13.385C59.447 13.119 59.8333 12.72 60.15 12.188L61.385 12.967C60.929 13.7017 60.3527 14.259 59.656 14.639C58.972 15.0063 58.1613 15.19 57.224 15.19ZM63.054 14.24C63.054 13.9487 63.1554 13.7017 63.358 13.499C63.5734 13.2963 63.8204 13.195 64.099 13.195C64.3904 13.195 64.6374 13.2963 64.84 13.499C65.0427 13.7017 65.144 13.9487 65.144 14.24C65.144 14.5187 65.0427 14.7657 64.84 14.981C64.6374 15.1837 64.3904 15.285 64.099 15.285C63.8204 15.285 63.5734 15.1837 63.358 14.981C63.1554 14.7657 63.054 14.5187 63.054 14.24Z" fill="#179E4F"/>
</svg>
